<mxfile host="app.diagrams.net" modified="2024-03-29T01:20:39.786Z" agent="Mozilla/5.0 (Windows NT 10.0; Win64; x64) AppleWebKit/537.36 (KHTML, like Gecko) Chrome/123.0.0.0 Safari/537.36" etag="GYl1bC3VyLIw1rwVy4Ya" version="24.1.0" type="github">
  <diagram name="Page-1" id="929967ad-93f9-6ef4-fab6-5d389245f69c">
    <mxGraphModel dx="1290" dy="557" grid="1" gridSize="10" guides="1" tooltips="1" connect="1" arrows="1" fold="1" page="1" pageScale="1.5" pageWidth="1169" pageHeight="826" background="none" math="0" shadow="0">
      <root>
        <mxCell id="0" style=";html=1;" />
        <mxCell id="1" style=";html=1;" parent="0" />
        <mxCell id="sMA8OBPM1GWuMbulpaNt-1" value="Servidor Aplicação" style="verticalAlign=top;align=left;spacingTop=8;spacingLeft=2;spacingRight=12;shape=cube;size=10;direction=south;fontStyle=4;html=1;whiteSpace=wrap;" vertex="1" parent="1">
          <mxGeometry x="440" y="80" width="180" height="120" as="geometry" />
        </mxCell>
        <mxCell id="sMA8OBPM1GWuMbulpaNt-2" value="Servidor Banco de dados" style="verticalAlign=top;align=left;spacingTop=8;spacingLeft=2;spacingRight=12;shape=cube;size=10;direction=south;fontStyle=4;html=1;whiteSpace=wrap;" vertex="1" parent="1">
          <mxGeometry x="750" y="70" width="180" height="120" as="geometry" />
        </mxCell>
        <mxCell id="sMA8OBPM1GWuMbulpaNt-4" style="edgeStyle=orthogonalEdgeStyle;rounded=0;orthogonalLoop=1;jettySize=auto;html=1;exitX=0;exitY=0;exitDx=55;exitDy=0;exitPerimeter=0;entryX=0;entryY=0;entryDx=65;entryDy=180;entryPerimeter=0;" edge="1" parent="1" source="sMA8OBPM1GWuMbulpaNt-1" target="sMA8OBPM1GWuMbulpaNt-2">
          <mxGeometry relative="1" as="geometry" />
        </mxCell>
        <mxCell id="sMA8OBPM1GWuMbulpaNt-8" value="Usuário" style="verticalAlign=top;align=left;spacingTop=8;spacingLeft=2;spacingRight=12;shape=cube;size=10;direction=south;fontStyle=4;html=1;whiteSpace=wrap;" vertex="1" parent="1">
          <mxGeometry x="130" y="80" width="180" height="120" as="geometry" />
        </mxCell>
        <mxCell id="sMA8OBPM1GWuMbulpaNt-9" style="edgeStyle=orthogonalEdgeStyle;rounded=0;orthogonalLoop=1;jettySize=auto;html=1;exitX=0;exitY=0;exitDx=55;exitDy=0;exitPerimeter=0;entryX=0;entryY=0;entryDx=65;entryDy=180;entryPerimeter=0;" edge="1" parent="1" source="sMA8OBPM1GWuMbulpaNt-8">
          <mxGeometry relative="1" as="geometry">
            <mxPoint x="440" y="135" as="targetPoint" />
          </mxGeometry>
        </mxCell>
      </root>
    </mxGraphModel>
  </diagram>
</mxfile>
